<?xml version="1.0" encoding="UTF-8"?>
<svg xmlns="http://www.w3.org/2000/svg" xmlns:xlink="http://www.w3.org/1999/xlink" width="150pt" height="150pt" viewBox="0 0 150 150" version="1.1">
<g id="surface1">
<path style=" stroke:none;fill-rule:nonzero;fill:rgb(1.176471%,48.235294%,76.078431%);fill-opacity:1;" d="M 150 75.15625 C 149.78125 75.3125 149.5625 75.484375 149.359375 75.671875 C 124.84375 100.171875 100.328125 124.6875 75.8125 149.1875 C 75.578125 149.421875 75.375 149.703125 75.21875 149.875 C 50.1875 124.84375 25.21875 99.890625 0.328125 75.015625 L 75.3125 0 C 75.4375 0.203125 75.546875 0.53125 75.78125 0.765625 C 100.28125 25.28125 124.78125 49.796875 149.296875 74.296875 C 149.515625 74.5 149.75 74.671875 150 74.84375 Z M 74.984375 146.046875 L 145.984375 75 L 75 4.046875 L 3.984375 75.09375 Z M 74.984375 146.046875 "/>
<path style=" stroke:none;fill-rule:nonzero;fill:rgb(98.039216%,98.431373%,98.823529%);fill-opacity:1;" d="M 74.984375 146.046875 L 3.984375 75.09375 L 75 4.046875 L 145.984375 75 Z M 143.53125 75.078125 L 75 6.578125 L 6.578125 75.03125 L 75.109375 143.53125 C 97.890625 120.734375 120.703125 97.90625 143.53125 75.078125 Z M 143.53125 75.078125 "/>
<path style=" stroke:none;fill-rule:nonzero;fill:rgb(0.392157%,48.235294%,75.686275%);fill-opacity:1;" d="M 143.53125 75.078125 C 120.734375 97.890625 97.921875 120.703125 75.09375 143.53125 L 6.578125 75.03125 L 75 6.578125 Z M 75.0625 13.78125 L 22.984375 65.875 L 75.078125 117.9375 L 127.140625 65.84375 Z M 18.046875 72.65625 L 16.171875 74.546875 L 16.859375 75.359375 L 14.09375 77.96875 C 15.515625 79.328125 16.890625 80.71875 18.34375 82.015625 C 19.34375 82.90625 20.53125 83.4375 21.921875 83.234375 C 25.875 82.6875 27.703125 78.421875 25.25 75.3125 C 24 73.734375 22.484375 72.359375 20.921875 70.734375 L 18.640625 73.1875 Z M 104.15625 103.890625 L 98.359375 102.6875 L 96.203125 104.8125 C 98.484375 107.109375 100.78125 109.40625 103.03125 111.65625 L 105.125 109.609375 L 101.890625 105.984375 L 107.5 107.140625 L 109.640625 105 L 102.921875 98.265625 L 100.828125 100.203125 Z M 45.265625 108.984375 L 52.109375 102.140625 L 49.640625 99.65625 L 47.609375 101.890625 L 45.109375 99.484375 C 45.84375 98.78125 46.59375 98.046875 47.3125 97.375 L 44.96875 95.015625 L 38.171875 101.8125 L 40.609375 104.328125 L 43.109375 101.703125 L 45.546875 104.078125 L 42.84375 106.609375 Z M 131.390625 73.40625 C 132.328125 71.671875 132.21875 70.703125 131.0625 69.65625 L 129.46875 71.1875 C 129.671875 71.796875 129.84375 72.359375 130.0625 72.984375 C 127.109375 72.734375 124.375 75.703125 124.140625 77.96875 C 123.890625 80.296875 125.8125 82.921875 128.390625 83.625 C 130.609375 84.234375 133.34375 82.75 134.40625 80.34375 C 135.453125 77.90625 134.34375 75.28125 131.390625 73.40625 Z M 59.390625 111.140625 C 59.40625 108.9375 57.71875 106.59375 55.4375 105.609375 C 53.578125 104.8125 51.84375 105.109375 50.328125 106.390625 C 48.828125 107.671875 47.90625 109.296875 48.421875 111.34375 C 49.046875 113.796875 50.640625 115.46875 53.09375 116.09375 C 56.15625 116.890625 59.375 114.28125 59.390625 111.140625 Z M 121.03125 88.546875 L 123.390625 86.140625 L 125.828125 88.859375 L 128.109375 86.640625 C 125.828125 84.375 123.53125 82.078125 121.25 79.828125 L 118.953125 82.140625 L 121.1875 84.28125 L 118.921875 86.546875 C 118.234375 85.78125 117.5 84.984375 116.8125 84.234375 L 114.640625 86.359375 L 121.46875 93.203125 L 123.6875 91.078125 Z M 65.1875 123.78125 L 62.890625 121.40625 L 62.625 121.53125 C 61.703125 121.96875 61.0625 121.890625 60.421875 121.25 C 59.75 120.5625 59.609375 119.734375 60.078125 118.890625 C 60.578125 117.96875 61.390625 117.25 62.359375 116.859375 C 63.125 116.546875 63.78125 116.71875 64.34375 117.3125 C 65.0625 118.078125 65.09375 118.921875 64.59375 119.65625 L 66.921875 121.96875 C 67.734375 120.734375 68.203125 119.375 67.59375 117.90625 C 66.984375 116.359375 65.828125 115.09375 64.359375 114.328125 C 61 112.578125 56.828125 115.140625 56.84375 118.9375 C 56.84375 121.421875 59.3125 124.3125 61.765625 124.6875 C 63.046875 124.859375 64.203125 124.59375 65.1875 123.78125 Z M 27.703125 89.8125 L 27.25 90.78125 L 29.6875 93.25 L 33.828125 83.84375 L 31.265625 81.28125 L 21.828125 85.4375 L 24.21875 87.84375 L 25.1875 87.359375 Z M 90.078125 116.015625 C 87.703125 114.328125 85.40625 114.734375 83.4375 117.140625 C 81.65625 119.328125 81.96875 122.140625 84.203125 124.171875 C 86.40625 126.171875 89.109375 126.078125 91.3125 123.921875 C 93.234375 122.046875 93.4375 119.5625 91.90625 117.8125 L 89.703125 119.96875 C 90.28125 121.03125 90.25 121.640625 89.53125 122.296875 C 88.78125 122.96875 87.90625 123.03125 87 122.21875 C 86.328125 121.59375 85.75 120.859375 85.28125 120.0625 C 84.90625 119.453125 85.125 118.796875 85.671875 118.296875 C 86.21875 117.796875 86.828125 117.609375 87.53125 117.9375 C 87.6875 118.015625 87.84375 118.09375 87.96875 118.15625 Z M 90.484375 110.5 L 94.890625 119.875 L 97.125 117.65625 C 96.921875 117.28125 96.734375 116.890625 96.5625 116.578125 L 98.875 114.265625 L 99.875 114.765625 L 102.171875 112.5 L 92.90625 108.140625 Z M 118.328125 96.453125 L 113.125 91.265625 C 113.90625 90.5625 114.609375 89.9375 115.234375 89.375 L 113.53125 87.59375 L 107.28125 93.859375 L 109.171875 95.703125 L 111.078125 93.578125 L 116.140625 98.640625 Z M 39.765625 89.9375 L 37.484375 87.640625 C 35.25 89.859375 32.96875 92.15625 30.78125 94.328125 L 33.0625 96.640625 Z M 25.671875 91.203125 L 23.53125 88.984375 L 22.703125 89.8125 L 24.859375 92 Z M 48.5625 114.0625 L 47.75 115.03125 L 49.78125 117.046875 L 50.703125 116.171875 Z M 90.828125 107.296875 L 89.625 108.390625 L 89.8125 110.140625 L 90.78125 109.28125 L 90.78125 108.40625 L 91.421875 108.4375 L 92.5 107.453125 Z M 90.59375 105.546875 C 90.03125 106.0625 89.59375 106.453125 89.09375 106.890625 C 90.171875 106.796875 91.296875 107.078125 91.90625 105.8125 Z M 90.59375 105.546875 "/>
<path style=" stroke:none;fill-rule:nonzero;fill:rgb(15.294118%,24.313725%,52.941176%);fill-opacity:1;" d="M 53.03125 69.75 L 52.8125 69.578125 C 52.8125 69.46875 52.828125 69.34375 52.8125 69.359375 L 54.15625 68.890625 C 54.234375 68.828125 54.3125 68.765625 54.375 68.71875 L 54.796875 68.359375 L 55.25 68.53125 L 55.6875 68.875 C 56.03125 69.21875 56.15625 69.65625 56.0625 70.078125 C 56 70.28125 55.890625 70.46875 55.71875 70.640625 C 55.6875 70.671875 55.671875 70.765625 55.65625 70.796875 C 55.609375 70.921875 55.59375 70.921875 55.59375 70.953125 C 55.578125 71.03125 55.625 71.078125 55.71875 71.21875 C 55.828125 71.390625 55.890625 71.46875 55.90625 71.53125 C 55.921875 71.671875 55.828125 71.71875 55.78125 71.859375 C 55.703125 72.140625 56 72.296875 55.984375 72.625 C 55.984375 72.890625 55.765625 73.109375 55.5625 73.21875 C 55.21875 73.40625 54.828125 73.25 54.71875 73.1875 C 54.15625 72.90625 53.9375 71.875 54.1875 70.640625 L 53.96875 70.46875 C 53.859375 70.390625 53.75 70.296875 53.65625 70.21875 C 53.421875 70.0625 53.234375 69.90625 53.03125 69.75 Z M 53.03125 69.75 "/>
<path style=" stroke:none;fill-rule:nonzero;fill:rgb(96.078431%,97.254902%,98.039216%);fill-opacity:1;" d="M 75.0625 13.78125 L 127.15625 65.84375 L 75.078125 117.9375 L 22.984375 65.875 Z M 75.375 15.921875 C 75.28125 15.8125 75.1875 15.703125 74.96875 15.453125 C 74.921875 15.59375 74.875 15.6875 74.84375 15.78125 C 74.71875 15.875 74.59375 15.96875 74.484375 16.078125 C 58.046875 32.515625 41.609375 48.953125 25.171875 65.390625 C 25.015625 65.546875 24.875 65.71875 24.609375 66 C 24.859375 66.171875 25.09375 66.359375 25.328125 66.5625 C 41.625 82.859375 57.921875 99.140625 74.203125 115.4375 C 74.390625 115.625 74.578125 115.78125 74.78125 115.953125 L 75.15625 116.078125 C 75.296875 115.953125 75.4375 115.84375 75.5625 115.71875 C 91.96875 99.3125 108.390625 82.90625 124.796875 66.5 C 124.921875 66.375 125.03125 66.234375 125.15625 66.09375 L 125.359375 65.84375 L 125.03125 65.578125 C 124.859375 65.390625 124.6875 65.1875 124.515625 65 C 108.3125 48.828125 92.125 32.640625 75.9375 16.453125 C 75.765625 16.265625 75.5625 16.109375 75.375 15.921875 Z M 75.375 15.921875 "/>
<path style=" stroke:none;fill-rule:nonzero;fill:rgb(98.431373%,98.823529%,99.215686%);fill-opacity:1;" d="M 18.046875 72.65625 L 18.640625 73.1875 L 20.921875 70.734375 C 22.484375 72.359375 24 73.734375 25.25 75.3125 C 27.703125 78.421875 25.875 82.6875 21.921875 83.234375 C 20.53125 83.421875 19.34375 82.890625 18.34375 82.015625 C 16.890625 80.71875 15.515625 79.328125 14.09375 77.96875 L 16.859375 75.359375 L 16.171875 74.546875 Z M 19.3125 77.765625 L 18.25 78.796875 C 18.96875 79.59375 19.734375 80.4375 20.9375 80.0625 C 22.140625 79.671875 23.125 78.8125 23.359375 77.53125 C 23.5625 76.40625 22.625 75.765625 21.875 75.015625 L 21.203125 75.734375 L 21.90625 76.515625 L 20.03125 78.4375 Z M 19.3125 77.765625 "/>
<path style=" stroke:none;fill-rule:nonzero;fill:rgb(97.254902%,98.431373%,98.823529%);fill-opacity:1;" d="M 104.15625 103.890625 L 100.828125 100.21875 L 102.921875 98.28125 L 109.640625 105.015625 L 107.5 107.15625 L 101.890625 106 L 105.125 109.625 L 103.03125 111.65625 C 100.78125 109.40625 98.5 107.109375 96.203125 104.8125 L 98.359375 102.6875 Z M 104.15625 103.890625 "/>
<path style=" stroke:none;fill-rule:nonzero;fill:rgb(98.431373%,98.823529%,99.215686%);fill-opacity:1;" d="M 45.265625 108.984375 L 42.84375 106.59375 L 45.546875 104.0625 L 43.125 101.6875 L 40.625 104.3125 L 38.1875 101.796875 L 44.984375 95 L 47.328125 97.359375 C 46.625 98.046875 45.859375 98.78125 45.125 99.46875 L 47.625 101.875 L 49.65625 99.640625 L 52.109375 102.125 Z M 45.265625 108.984375 "/>
<path style=" stroke:none;fill-rule:nonzero;fill:rgb(98.039216%,98.431373%,98.823529%);fill-opacity:1;" d="M 131.390625 73.40625 C 134.34375 75.265625 135.453125 77.90625 134.375 80.359375 C 133.328125 82.765625 130.59375 84.25 128.359375 83.640625 C 125.78125 82.9375 123.859375 80.296875 124.109375 77.984375 C 124.34375 75.703125 127.09375 72.734375 130.03125 73 C 129.828125 72.375 129.640625 71.8125 129.4375 71.203125 L 131.03125 69.671875 C 132.234375 70.703125 132.328125 71.671875 131.390625 73.40625 Z M 127 77.6875 C 126.984375 79.0625 128.921875 80.96875 130.296875 80.921875 C 131.421875 80.890625 132.265625 79.734375 131.90625 78.6875 C 131.5 77.421875 130.515625 76.4375 129.25 76.03125 C 128.34375 75.734375 127.375 76.234375 127.078125 77.125 C 127.03125 77.3125 127 77.5 127 77.6875 Z M 127 77.6875 "/>
<path style=" stroke:none;fill-rule:nonzero;fill:rgb(98.039216%,98.823529%,98.823529%);fill-opacity:1;" d="M 59.390625 111.140625 C 59.375 114.28125 56.140625 116.890625 53.109375 116.09375 C 50.65625 115.46875 49.0625 113.796875 48.4375 111.34375 C 47.921875 109.296875 48.828125 107.671875 50.34375 106.375 C 51.859375 105.09375 53.578125 104.796875 55.4375 105.59375 C 57.734375 106.59375 59.40625 108.9375 59.390625 111.140625 Z M 53.203125 113.3125 C 54.625 113.3125 56.46875 111.4375 56.40625 110.015625 C 56.359375 108.859375 55.09375 107.875 53.984375 108.21875 C 52.609375 108.65625 51.671875 109.609375 51.328125 111.015625 C 51.078125 112.109375 52.09375 113.296875 53.203125 113.3125 Z M 53.203125 113.3125 "/>
<path style=" stroke:none;fill-rule:nonzero;fill:rgb(98.039216%,98.431373%,98.823529%);fill-opacity:1;" d="M 121.03125 88.546875 L 123.703125 91.078125 L 121.484375 93.203125 L 114.65625 86.359375 L 116.828125 84.234375 C 117.515625 84.984375 118.234375 85.78125 118.9375 86.546875 L 121.203125 84.28125 L 118.96875 82.140625 L 121.265625 79.828125 C 123.53125 82.09375 125.84375 84.375 128.125 86.640625 L 125.84375 88.859375 L 123.390625 86.140625 Z M 121.03125 88.546875 "/>
<path style=" stroke:none;fill-rule:nonzero;fill:rgb(98.039216%,98.431373%,98.823529%);fill-opacity:1;" d="M 65.1875 123.78125 C 64.203125 124.609375 63.046875 124.859375 61.78125 124.671875 C 59.328125 124.3125 56.859375 121.421875 56.84375 118.921875 C 56.84375 115.140625 61.015625 112.578125 64.375 114.3125 C 65.84375 115.078125 67 116.34375 67.609375 117.890625 C 68.21875 119.359375 67.75 120.734375 66.9375 121.953125 L 64.609375 119.640625 C 65.109375 118.890625 65.078125 118.0625 64.359375 117.296875 C 63.796875 116.703125 63.140625 116.53125 62.375 116.84375 C 61.40625 117.234375 60.59375 117.953125 60.09375 118.890625 C 59.625 119.71875 59.75 120.5625 60.421875 121.25 C 61.0625 121.90625 61.703125 121.984375 62.625 121.53125 L 62.890625 121.40625 Z M 65.1875 123.78125 "/>
<path style=" stroke:none;fill-rule:nonzero;fill:rgb(98.431373%,98.823529%,99.215686%);fill-opacity:1;" d="M 27.703125 89.8125 L 25.203125 87.34375 L 24.234375 87.828125 L 21.84375 85.421875 L 31.28125 81.265625 L 33.84375 83.828125 L 29.6875 93.25 L 27.25 90.78125 Z M 28.84375 87.734375 C 29.328125 86.78125 29.84375 85.765625 30.375 84.765625 L 30.234375 84.671875 L 27.296875 86.234375 Z M 28.84375 87.734375 "/>
<path style=" stroke:none;fill-rule:nonzero;fill:rgb(97.647059%,98.431373%,98.823529%);fill-opacity:1;" d="M 90.078125 116.015625 L 87.953125 118.171875 C 87.84375 118.109375 87.6875 118.03125 87.515625 117.953125 C 86.8125 117.625 86.203125 117.8125 85.65625 118.3125 C 85.109375 118.8125 84.90625 119.46875 85.265625 120.078125 C 85.734375 120.875 86.3125 121.609375 86.984375 122.234375 C 87.890625 123.03125 88.765625 122.984375 89.515625 122.3125 C 90.234375 121.65625 90.28125 121.046875 89.6875 119.984375 L 91.890625 117.828125 C 93.421875 119.578125 93.21875 122.046875 91.296875 123.9375 C 89.09375 126.109375 86.40625 126.1875 84.203125 124.1875 C 81.96875 122.15625 81.65625 119.34375 83.4375 117.15625 C 85.40625 114.734375 87.703125 114.34375 90.078125 116.015625 Z M 90.078125 116.015625 "/>
<path style=" stroke:none;fill-rule:nonzero;fill:rgb(97.254902%,98.431373%,98.823529%);fill-opacity:1;" d="M 90.484375 110.5 L 92.90625 108.15625 L 102.171875 112.515625 L 99.875 114.78125 L 98.875 114.28125 L 96.5625 116.59375 C 96.71875 116.90625 96.921875 117.296875 97.125 117.671875 L 94.890625 119.890625 Z M 93.984375 111.5625 L 93.859375 111.671875 C 94.40625 112.640625 94.9375 113.609375 95.484375 114.578125 L 96.953125 113.171875 Z M 93.984375 111.5625 "/>
<path style=" stroke:none;fill-rule:nonzero;fill:rgb(97.647059%,98.431373%,98.823529%);fill-opacity:1;" d="M 118.328125 96.453125 L 116.109375 98.640625 L 111.046875 93.578125 L 109.140625 95.703125 L 107.25 93.859375 L 113.5 87.59375 L 115.21875 89.375 C 114.59375 89.921875 113.890625 90.5625 113.109375 91.265625 Z M 118.328125 96.453125 "/>
<path style=" stroke:none;fill-rule:nonzero;fill:rgb(98.039216%,98.431373%,98.823529%);fill-opacity:1;" d="M 39.765625 89.9375 L 33.0625 96.640625 L 30.78125 94.328125 C 32.96875 92.15625 35.25 89.859375 37.484375 87.640625 Z M 39.765625 89.9375 "/>
<path style=" stroke:none;fill-rule:nonzero;fill:rgb(96.078431%,97.254902%,98.039216%);fill-opacity:1;" d="M 25.671875 91.203125 L 24.84375 92 L 22.6875 89.8125 L 23.515625 88.984375 Z M 25.671875 91.203125 "/>
<path style=" stroke:none;fill-rule:nonzero;fill:rgb(96.078431%,97.254902%,98.039216%);fill-opacity:1;" d="M 48.5625 114.0625 L 50.703125 116.171875 L 49.78125 117.046875 L 47.75 115.03125 Z M 48.5625 114.0625 "/>
<path style=" stroke:none;fill-rule:nonzero;fill:rgb(92.941176%,96.078431%,98.039216%);fill-opacity:1;" d="M 90.828125 107.296875 L 92.515625 107.453125 L 91.4375 108.4375 L 90.796875 108.40625 L 90.796875 109.28125 L 89.828125 110.140625 L 89.640625 108.390625 Z M 90.828125 107.296875 "/>
<path style=" stroke:none;fill-rule:nonzero;fill:rgb(92.941176%,96.078431%,98.039216%);fill-opacity:1;" d="M 90.59375 105.546875 L 91.90625 105.8125 C 91.3125 107.078125 90.171875 106.796875 89.09375 106.890625 C 89.578125 106.453125 90.03125 106.046875 90.59375 105.546875 Z M 90.59375 105.546875 "/>
<path style=" stroke:none;fill-rule:nonzero;fill:rgb(15.294118%,24.313725%,52.941176%);fill-opacity:1;" d="M 125.15625 66.109375 C 125.03125 66.25 124.921875 66.390625 124.796875 66.515625 C 108.390625 82.921875 91.984375 99.328125 75.5625 115.734375 C 75.4375 115.859375 75.296875 115.96875 75.15625 116.09375 L 74.78125 115.96875 C 74.59375 115.796875 74.390625 115.625 74.203125 115.453125 C 57.921875 99.15625 41.640625 82.859375 25.34375 66.578125 C 25.109375 66.375 24.875 66.1875 24.625 66.015625 C 24.875 65.734375 25.015625 65.5625 25.1875 65.40625 C 41.625 48.96875 58.0625 32.53125 74.5 16.09375 C 74.609375 15.984375 74.734375 15.890625 74.859375 15.796875 L 75.390625 15.9375 C 75.578125 16.109375 75.78125 16.28125 75.96875 16.453125 C 92.15625 32.640625 108.34375 48.828125 124.515625 65 C 124.703125 65.1875 124.859375 65.390625 125.03125 65.578125 C 125.078125 65.765625 125.109375 65.9375 125.15625 66.109375 Z M 79.8125 28.109375 L 79.640625 28.25 C 77.8125 29.78125 76.71875 31.609375 77.21875 34.109375 C 77.296875 34.484375 77.234375 34.890625 77.234375 35.3125 C 76.140625 35.484375 75.765625 34.84375 75.46875 34.171875 C 74.625 32.265625 74.78125 30.375 75.65625 28.515625 C 75.765625 28.234375 75.859375 27.953125 75.9375 27.65625 C 75.96875 27.640625 76.015625 27.625 75.96875 27.640625 L 75.953125 27.65625 C 75.421875 28.53125 74.78125 29.375 74.390625 30.3125 C 73.609375 32.25 73.84375 34.234375 74.265625 36.234375 C 74.390625 36.8125 74.453125 37.40625 74.453125 38.015625 C 74.453125 38.734375 73.9375 39.140625 73.296875 39.15625 C 72.625 39.1875 72.375 38.59375 72.359375 38.03125 C 72.34375 37.40625 72.421875 36.796875 72.59375 36.1875 C 73.03125 34.734375 73.109375 33.203125 72.78125 31.71875 C 72.390625 29.8125 72 27.90625 71.640625 26.0625 C 71.734375 25.984375 71.6875 26 71.671875 26.046875 C 70.484375 27.75 69.96875 29.5625 70.578125 31.65625 C 71.015625 33.140625 71.203125 34.671875 70.546875 36.171875 C 70.1875 36.96875 69.65625 37.203125 69.09375 36.890625 C 68.4375 36.53125 68.25 35.859375 68.671875 35.15625 C 69.015625 34.59375 69.421875 34.09375 69.765625 33.53125 C 70.46875 32.390625 70.25 30.765625 69.28125 29.8125 C 69.375 31.359375 68.6875 32.546875 67.671875 33.59375 C 67.203125 34.078125 66.65625 34.515625 66.296875 35.078125 C 65.78125 35.890625 65.21875 36.765625 64.984375 37.6875 C 64.515625 39.484375 66.15625 41.390625 68.015625 41.390625 C 73.125 41.390625 78.21875 41.40625 83.328125 41.40625 C 84 41.40625 84.671875 41.40625 85.515625 41.40625 C 85.765625 40.90625 86.09375 40.421875 86.265625 39.875 C 86.84375 38.046875 86.078125 36.515625 85.078125 35.0625 C 84.28125 33.90625 83.671875 32.734375 84.53125 31.09375 C 84.203125 31.328125 84.09375 31.390625 84 31.46875 C 82.734375 32.671875 82.609375 34.203125 83.46875 35.96875 C 83.8125 36.671875 83.96875 37.484375 84.09375 38.25 C 84.1875 38.78125 83.96875 39.3125 83.390625 39.5 C 82.796875 39.6875 82.203125 39.546875 81.859375 39.015625 C 81.53125 38.5 81.28125 37.921875 81.109375 37.328125 C 80.59375 35.375 81.25 33.640625 82.140625 31.953125 C 82.171875 31.890625 82.21875 31.828125 82.25 31.78125 C 82.28125 31.71875 82.3125 31.671875 82.421875 31.46875 L 82.171875 31.6875 L 82.015625 31.84375 C 80.703125 33 80 34.390625 80.21875 36.1875 C 80.25 36.390625 80.25 36.609375 80.234375 36.8125 C 80.203125 37.3125 80 37.59375 79.328125 37.46875 C 79.1875 37.1875 78.96875 36.859375 78.875 36.5 C 78.171875 33.875 77.921875 31.28125 79.578125 28.859375 C 79.671875 28.703125 79.75 28.546875 79.828125 28.375 L 79.9375 28.203125 L 80.09375 27.90625 Z M 55.3125 69.0625 L 55.15625 68.90625 L 54.859375 68.734375 L 54.5 69.046875 L 54.34375 69.203125 L 53.234375 69.28125 C 53.3125 69.515625 53.375 69.6875 53.421875 69.859375 L 53.578125 70.015625 L 54.046875 70.328125 L 54.21875 70.625 L 54.375 70.78125 L 54.84375 72.65625 C 54.921875 72.796875 55.015625 72.953125 55.09375 73.09375 L 55.3125 73.03125 L 55.3125 71.25 L 55.46875 70.78125 C 55.953125 70.25 55.765625 69.734375 55.46875 69.203125 Z M 82.234375 99.15625 C 84.140625 99.765625 85.90625 99.328125 87.890625 98.25 L 86.765625 97.65625 L 86.921875 97.484375 C 89 97.953125 90.71875 97.125 92.4375 96.015625 L 91.28125 95.140625 C 93.59375 95.25 95.171875 94.15625 96.6875 92.765625 L 95.328125 92.09375 C 97.640625 91.890625 99.015625 90.515625 100.34375 88.875 L 98.890625 88.453125 C 101.140625 87.8125 102.296875 86.25 103.296875 84.4375 L 101.796875 84.25 C 103.921875 83.234375 104.796875 81.515625 105.46875 79.609375 L 104.28125 79.609375 C 104.25 79.578125 104.234375 79.5625 104.203125 79.53125 C 105.84375 78.25 106.53125 76.484375 106.8125 74.421875 L 105.6875 74.65625 C 105.65625 74.609375 105.625 74.5625 105.59375 74.515625 C 107 73.015625 107.328125 71.171875 107.3125 69.125 L 105.953125 69.59375 C 107.265625 67.75 107.296875 65.84375 106.890625 63.8125 L 105.65625 64.515625 C 106.640625 62.453125 106.328125 60.578125 105.640625 58.625 L 104.65625 59.375 C 104.625 59.34375 104.59375 59.3125 104.5625 59.296875 C 105.171875 57.265625 104.484375 55.484375 103.53125 53.703125 L 102.5625 54.8125 C 102.875 52.515625 101.921875 50.84375 100.65625 49.21875 L 99.859375 50.515625 C 99.84375 48.15625 98.578125 46.6875 97.078125 45.25 C 96.875 45.734375 96.734375 46.09375 96.515625 46.625 C 96.0625 44.34375 94.625 43.09375 92.859375 41.921875 C 92.703125 42.953125 92.578125 43.8125 92.4375 44.75 C 90.890625 42.921875 88.96875 42.765625 86.84375 43.15625 C 87.296875 45.640625 88.921875 46.828125 91.078125 47.359375 L 88.640625 49.15625 C 90 50.171875 91.3125 50.9375 93.125 50.828125 L 91.75 51.71875 C 92.859375 52.9375 94.078125 53.8125 95.75 54.09375 L 94.359375 54.71875 C 95.25 56.09375 96.28125 57.140625 97.90625 57.71875 L 96.421875 58.078125 C 97.046875 59.5625 97.875 60.765625 99.40625 61.625 L 97.90625 61.78125 C 98.296875 63.359375 98.921875 64.71875 100.3125 65.765625 L 98.75 65.625 C 98.875 67.234375 99.265625 68.640625 100.421875 69.921875 L 98.953125 69.578125 C 98.8125 71.125 98.953125 72.546875 99.75 73.84375 L 99.609375 73.96875 L 98.515625 73.53125 C 98.09375 75.0625 98.046875 76.53125 98.671875 78.109375 L 97.453125 77.34375 C 96.703125 78.796875 96.5 80.140625 96.796875 81.65625 C 96.75 81.6875 96.71875 81.71875 96.6875 81.75 L 95.703125 80.90625 C 94.84375 82.234375 94.28125 83.59375 94.375 85.3125 L 93.453125 84.15625 L 92.65625 85.046875 C 92.640625 85.078125 92.625 85.09375 92.59375 85.125 C 92.5625 85.15625 92.546875 85.1875 92.515625 85.21875 C 92.09375 86.171875 91.671875 87.125 91.265625 88.046875 L 90.671875 86.953125 C 89.40625 87.96875 88.390625 89.046875 87.984375 90.78125 L 87.46875 89.296875 C 86.03125 90.09375 84.875 91 84.1875 92.625 L 83.921875 91.0625 C 82.359375 91.609375 81.0625 92.34375 80.09375 93.875 L 80.09375 92.25 C 77.578125 92.671875 75.625 93.734375 74.953125 96.390625 L 74.953125 95.0625 L 71.375 94.796875 C 71.265625 95.5 71.140625 96.203125 71.015625 97.046875 L 64.453125 95.28125 C 64.78125 94.453125 65.015625 93.84375 65.28125 93.15625 C 62.140625 91.890625 59.28125 90.03125 56.84375 87.6875 L 55.203125 89.296875 L 50.921875 84.03125 L 52.859375 82.78125 C 51.0625 79.921875 49.828125 76.734375 49.21875 73.40625 L 46.953125 73.78125 C 46.828125 71.5 46.703125 69.296875 46.59375 67 L 48.890625 67.109375 C 49.125 63.734375 50 60.453125 51.46875 57.40625 L 49.40625 56.375 L 53.109375 50.671875 L 54.90625 52.125 C 57.078125 49.53125 59.71875 47.375 62.6875 45.765625 L 61.671875 43.828125 L 64.609375 42.453125 C 64.125 41.203125 63.640625 39.984375 63.109375 38.625 L 57.640625 41.40625 L 59.3125 44.078125 L 53.765625 48.59375 L 51.765625 46.296875 C 48.828125 49.328125 46.515625 52.90625 44.953125 56.828125 L 47.78125 57.984375 C 47.171875 60.296875 46.578125 62.515625 45.984375 64.765625 L 42.953125 64.375 C 42.375 68.515625 42.609375 72.75 43.640625 76.796875 L 46.59375 76.0625 L 49.140625 82.609375 L 46.453125 84.046875 C 48.421875 87.75 51.09375 91.015625 54.328125 93.703125 L 56.296875 91.359375 L 62.203125 95.171875 L 60.875 97.921875 C 64.640625 99.765625 68.71875 100.84375 72.90625 101.09375 C 72.984375 100 73.0625 99 73.140625 97.953125 L 74.9375 97.953125 L 75.078125 97.375 C 76.609375 100.703125 79.640625 101.078125 82.625 100.109375 L 82.0625 99.28125 Z M 79.40625 46.96875 L 86.25 43.171875 C 86.359375 42.65625 86.453125 42.140625 86.546875 41.625 L 65.671875 41.625 C 65.78125 42.1875 65.875 42.703125 65.96875 43.171875 L 72.796875 46.953125 C 73.53125 56.40625 74.28125 65.84375 75.015625 75.25 L 76.109375 76.078125 L 77.1875 75.234375 C 77.9375 65.828125 78.671875 56.40625 79.40625 46.96875 Z M 67.65625 86.46875 C 67.921875 83.03125 66.703125 79.59375 67.0625 76.15625 C 68.46875 75.234375 68.6875 74.296875 67.703125 73.484375 C 67.34375 73.21875 66.9375 73.046875 66.5 72.96875 C 65.421875 72.75 64.34375 72.609375 63.265625 72.4375 C 62.390625 72.296875 61.875 71.8125 61.609375 70.921875 C 61.421875 70.34375 61.015625 69.71875 60.515625 69.40625 C 59.421875 68.703125 58.75 68.59375 57.75 68.171875 C 57.609375 68.09375 57.4375 68.078125 57.28125 68.140625 C 57.25 68.15625 57.21875 68.1875 57.1875 68.21875 C 57.171875 68.25 57.171875 68.28125 57.171875 68.3125 C 57.1875 68.375 57.21875 68.421875 57.25 68.453125 C 57.390625 68.515625 57.578125 68.609375 57.828125 68.703125 C 58.796875 69.125 58.875 69.109375 59.234375 69.28125 C 59.84375 69.578125 60.3125 69.8125 60.65625 70.3125 C 60.8125 70.546875 60.734375 70.53125 61.125 71.296875 C 61.421875 71.890625 61.578125 72.078125 61.734375 72.25 C 61.921875 72.4375 62.140625 72.609375 62.375 72.734375 C 62.953125 73.046875 63.515625 73.03125 64.046875 73.125 C 64.9375 73.296875 65.859375 73.359375 66.734375 73.578125 C 67.5625 73.78125 67.890625 74.796875 67.234375 75.15625 C 66.28125 75.703125 66.203125 76.546875 66.265625 77.421875 C 66.40625 79.234375 66.625 81.046875 66.78125 82.859375 C 66.90625 84.234375 66.984375 85.625 67.09375 87.140625 C 66.8125 87.3125 66.5625 87.546875 66.375 87.8125 C 65.59375 88.921875 66.078125 90.3125 66.15625 90.5 C 66.34375 90.5 66.640625 90.46875 67 90.421875 C 68.109375 90.28125 69.5 89.5625 73.21875 87.78125 C 74 87.40625 74.8125 86.96875 75.453125 86.390625 C 78.1875 83.9375 80.859375 81.4375 83.53125 78.921875 C 84.578125 77.953125 85.21875 76.640625 85.359375 75.21875 C 85.4375 74.4375 85.5625 73.65625 85.65625 72.953125 C 86.875 73.40625 88.015625 73.921875 89.203125 74.265625 C 90.1875 74.546875 90.984375 73.90625 91.125 72.875 C 91.15625 72.671875 91.15625 72.46875 91.171875 72.234375 C 92.109375 72.203125 92.734375 71.671875 92.765625 70.8125 C 92.8125 69.296875 93.859375 68.53125 94.828125 67.671875 C 95.234375 67.3125 95.765625 67.078125 96.234375 66.78125 C 96.21875 66.6875 96.1875 66.59375 96.171875 66.5 C 95.84375 66.53125 95.4375 66.46875 95.21875 66.640625 C 94.1875 67.421875 93.21875 68.265625 92.1875 69.109375 C 90.765625 68.75 89.21875 68.296875 87.65625 67.984375 C 85.921875 67.640625 84.375 67.015625 83.3125 65.515625 C 83.21875 65.359375 83.078125 65.234375 82.921875 65.140625 C 82.71875 65.0625 82.515625 65.015625 82.296875 64.984375 C 82.265625 65.046875 82.234375 65.109375 82.203125 65.171875 C 82.359375 65.359375 82.515625 65.5625 82.6875 65.734375 C 83.703125 66.8125 84.765625 67.859375 85.71875 68.984375 C 86.6875 70.109375 87.90625 71 89.265625 71.59375 C 89.625 71.75 89.96875 71.921875 90.53125 72.171875 C 90.296875 72.75 90.0625 73.28125 89.828125 73.859375 C 89.28125 73.75 88.890625 73.765625 88.578125 73.59375 C 87.1875 72.84375 85.78125 72.140625 84.46875 71.265625 C 83.4375 70.578125 82.5625 69.65625 81.59375 68.859375 C 81.390625 68.703125 81.09375 68.65625 80.84375 68.5625 L 80.71875 68.828125 L 84.8125 72.359375 C 84.875 75.171875 84.21875 77.625 81.96875 79.5 C 80.296875 80.90625 78.75 82.453125 77.171875 83.96875 C 75.46875 85.625 73.640625 87.125 71.375 87.96875 C 71.03125 88.09375 70.734375 88.328125 70.40625 88.46875 C 69.234375 88.984375 68.046875 89.484375 66.84375 90 C 66.46875 88.4375 67.375 87.6875 68.453125 87.03125 Z M 67.65625 86.46875 "/>
<path style=" stroke:none;fill-rule:nonzero;fill:rgb(10.980392%,20.392157%,50.588235%);fill-opacity:1;" d="M 75.375 15.9375 L 74.84375 15.78125 C 74.875 15.6875 74.921875 15.59375 74.96875 15.453125 C 75.1875 15.703125 75.28125 15.8125 75.375 15.9375 Z M 75.375 15.9375 "/>
<path style=" stroke:none;fill-rule:nonzero;fill:rgb(10.980392%,20.392157%,50.588235%);fill-opacity:1;" d="M 125.140625 66.09375 C 125.09375 65.921875 125.0625 65.75 125.015625 65.578125 L 125.34375 65.84375 Z M 125.140625 66.09375 "/>
<path style=" stroke:none;fill-rule:nonzero;fill:rgb(10.980392%,20.392157%,50.588235%);fill-opacity:1;" d="M 74.78125 115.953125 L 75.15625 116.078125 Z M 74.78125 115.953125 "/>
<path style=" stroke:none;fill-rule:nonzero;fill:rgb(2.745098%,49.019608%,76.078431%);fill-opacity:1;" d="M 19.3125 77.765625 L 20.03125 78.4375 L 21.921875 76.53125 L 21.21875 75.75 L 21.890625 75.03125 C 22.640625 75.765625 23.59375 76.421875 23.375 77.546875 C 23.140625 78.828125 22.15625 79.6875 20.953125 80.078125 C 19.734375 80.46875 18.984375 79.609375 18.265625 78.8125 Z M 19.3125 77.765625 "/>
<path style=" stroke:none;fill-rule:nonzero;fill:rgb(1.568627%,48.627451%,76.078431%);fill-opacity:1;" d="M 127 77.6875 C 126.984375 76.734375 127.75 75.96875 128.703125 75.953125 C 128.890625 75.953125 129.078125 75.984375 129.25 76.03125 C 130.515625 76.4375 131.5 77.421875 131.90625 78.6875 C 132.265625 79.734375 131.40625 80.890625 130.296875 80.921875 C 128.921875 80.96875 126.984375 79.0625 127 77.6875 Z M 127 77.6875 "/>
<path style=" stroke:none;fill-rule:nonzero;fill:rgb(1.568627%,48.627451%,76.078431%);fill-opacity:1;" d="M 53.203125 113.3125 C 52.078125 113.3125 51.0625 112.109375 51.34375 111.03125 C 51.703125 109.625 52.625 108.671875 54 108.234375 C 55.109375 107.875 56.375 108.859375 56.40625 110.03125 C 56.46875 111.421875 54.640625 113.3125 53.203125 113.3125 Z M 53.203125 113.3125 "/>
<path style=" stroke:none;fill-rule:nonzero;fill:rgb(5.882353%,50.196078%,76.862745%);fill-opacity:1;" d="M 28.84375 87.734375 L 27.296875 86.25 L 30.234375 84.6875 L 30.375 84.78125 C 29.859375 85.765625 29.34375 86.78125 28.84375 87.734375 Z M 28.84375 87.734375 "/>
<path style=" stroke:none;fill-rule:nonzero;fill:rgb(2.745098%,49.019608%,76.078431%);fill-opacity:1;" d="M 93.984375 111.5625 L 96.9375 113.171875 L 95.46875 114.578125 C 94.921875 113.609375 94.390625 112.640625 93.84375 111.671875 Z M 93.984375 111.5625 "/>
<path style="fill:none;stroke-width:2;stroke-linecap:butt;stroke-linejoin:miter;stroke:rgb(34.509804%,41.568627%,63.529412%);stroke-opacity:1;stroke-miterlimit:10;" d="M 579.1 551 C 578.4 551.5 577.8 552.4 576.9 552.3 C 575.8 552.1 575.8 550.6 576 549.5 C 576.4 546.8 576.2 544 575.3 541.4 C 576.4 541 577.7 541.5 578.2 542.6 C 579.2 542.1 579.5 540.7 579.6 539.5 C 579.8 538.3 580.2 536.9 581.4 536.7 C 581.9 536.6 582.4 536.7 582.9 536.8 C 584.5 537 586.3 536.5 587.5 535.4 C 587.9 535 588.3 534.5 588.8 534.3 C 589.8 533.9 591 534.5 591.4 535.5 C 591.8 536.5 591.6 537.6 591.1 538.6 C 590.6 539.5 589.8 540.3 589 541 C 588.9 541.1 588.7 541.3 588.7 541.5 C 588.7 541.8 588.9 542 589 542.2 C 590.2 543.5 591.5 544.8 593.2 545 C 593.8 545.1 594.5 545 595.1 545.2 C 595.7 545.3 596.4 545.7 596.5 546.4 C 596.7 547.3 595.8 548 595 548.4 C 593.5 549.2 591.7 550.1 590.2 549.2 C 588.7 548.3 588.3 546 586.6 545.5 C 585.5 545.2 584.3 546 583.8 547 C 583.3 548 583.3 549.2 583.5 550.3 C 583.6 550.7 583.6 551.2 583.5 551.6 C 583.4 552 583 552.3 582.6 552.2 C 582.1 550.4 580.4 550 579.1 551 Z M 579.1 551 " transform="matrix(0.15625,0,0,0.15625,0,0)"/>
<path style="fill:none;stroke-width:2;stroke-linecap:butt;stroke-linejoin:miter;stroke:rgb(34.509804%,41.568627%,63.529412%);stroke-opacity:1;stroke-miterlimit:10;" d="M 345.6 445.6 C 347.7 444.6 349.3 442.7 349.9 440.5 C 350 440.2 350.2 439.7 350.6 439.8 C 350.7 439.8 350.8 439.9 350.8 439.9 C 352.4 441.2 354 442.6 355.2 444.3 C 356.4 446 357.2 448 357.1 450.1 C 356.9 452.7 355.2 454.9 354.3 457.3 C 353 460.8 353.5 464.8 353.9 468.5 C 351 466.9 350.1 463.2 349.6 460 C 349.1 456.7 348.5 453.1 345.9 451.1 C 344.7 450.2 343.2 449.6 342.2 448.5 C 339.9 445.7 343.1 443.7 345.6 445.6 Z M 345.6 445.6 " transform="matrix(0.15625,0,0,0.15625,0,0)"/>
<path style=" stroke:none;fill-rule:nonzero;fill:rgb(98.431373%,94.117647%,7.45098%);fill-opacity:1;" d="M 96.8125 81.640625 C 96.515625 80.125 96.71875 78.78125 97.46875 77.328125 L 98.6875 78.09375 C 98.046875 76.515625 98.109375 75.046875 98.53125 73.515625 L 99.625 73.953125 L 99.921875 74.109375 L 99.765625 73.828125 C 98.96875 72.53125 98.828125 71.109375 98.96875 69.5625 L 100.4375 69.90625 C 99.296875 68.625 98.890625 67.21875 98.765625 65.609375 L 100.328125 65.734375 C 98.9375 64.6875 98.296875 63.328125 97.921875 61.75 L 99.421875 61.59375 C 97.890625 60.734375 97.0625 59.53125 96.4375 58.046875 L 97.921875 57.6875 C 96.296875 57.109375 95.265625 56.0625 94.375 54.6875 L 95.765625 54.0625 C 94.09375 53.765625 92.890625 52.890625 91.765625 51.671875 L 93.140625 50.78125 C 91.3125 50.875 90.015625 50.125 88.65625 49.109375 L 91.09375 47.3125 C 88.9375 46.78125 87.3125 45.59375 86.859375 43.109375 C 88.984375 42.71875 90.90625 42.875 92.453125 44.703125 C 92.59375 43.765625 92.71875 42.90625 92.875 41.875 C 94.640625 43.046875 96.078125 44.296875 96.546875 46.578125 C 96.765625 46.046875 96.921875 45.6875 97.109375 45.203125 C 98.609375 46.640625 99.875 48.109375 99.890625 50.46875 L 100.6875 49.1875 C 101.953125 50.8125 102.90625 52.484375 102.59375 54.796875 L 103.5625 53.6875 C 104.53125 55.484375 105.203125 57.25 104.59375 59.28125 C 104.578125 59.34375 104.578125 59.40625 104.53125 59.59375 L 104.671875 59.359375 L 105.640625 58.59375 C 106.328125 60.53125 106.640625 62.421875 105.65625 64.484375 L 106.890625 63.78125 C 107.28125 65.828125 107.265625 67.71875 105.953125 69.5625 L 107.3125 69.09375 C 107.3125 71.140625 107 72.984375 105.59375 74.484375 L 105.390625 74.65625 L 105.6875 74.625 L 106.8125 74.390625 C 106.53125 76.453125 105.84375 78.21875 104.203125 79.5 C 104.171875 79.53125 104.125 79.546875 103.90625 79.6875 L 104.28125 79.578125 L 105.46875 79.578125 C 104.796875 81.5 103.9375 83.203125 101.796875 84.21875 L 103.296875 84.40625 C 102.3125 86.21875 101.15625 87.78125 98.90625 88.421875 L 100.359375 88.84375 C 99.03125 90.484375 97.65625 91.859375 95.34375 92.0625 L 96.703125 92.734375 C 95.171875 94.125 93.59375 95.21875 91.296875 95.109375 L 92.453125 95.984375 C 90.734375 97.09375 89.015625 97.921875 86.9375 97.453125 L 86.78125 97.625 L 87.90625 98.21875 C 85.9375 99.296875 84.15625 99.734375 82.25 99.125 L 81.765625 98.90625 L 82.0625 99.28125 L 82.625 100.109375 C 79.640625 101.078125 76.609375 100.703125 75.078125 97.375 L 74.9375 97.953125 L 73.140625 97.953125 C 73.0625 99 72.984375 100 72.90625 101.09375 C 68.71875 100.84375 64.640625 99.75 60.875 97.921875 L 62.203125 95.171875 L 56.296875 91.359375 L 54.328125 93.703125 C 51.109375 91.015625 48.4375 87.734375 46.453125 84.03125 L 49.140625 82.578125 L 46.59375 76.03125 L 43.640625 76.765625 C 42.609375 72.71875 42.375 68.5 42.953125 64.34375 L 45.984375 64.734375 C 46.578125 62.484375 47.171875 60.25 47.78125 57.953125 L 44.953125 56.796875 C 46.515625 52.875 48.84375 49.296875 51.765625 46.265625 L 53.765625 48.5625 L 59.375 44 L 57.703125 41.328125 L 63.171875 38.546875 C 63.703125 39.90625 64.1875 41.140625 64.671875 42.375 L 61.734375 43.75 L 62.734375 45.6875 C 59.765625 47.296875 57.125 49.453125 54.953125 52.046875 L 53.15625 50.59375 L 49.453125 56.296875 L 51.515625 57.328125 C 50.046875 60.375 49.171875 63.65625 48.9375 67.03125 L 46.640625 66.921875 C 46.765625 69.21875 46.875 71.4375 47 73.703125 L 49.265625 73.328125 C 49.875 76.65625 51.109375 79.84375 52.90625 82.703125 L 50.96875 83.953125 L 55.25 89.21875 L 56.875 87.65625 C 59.3125 90 62.171875 91.859375 65.3125 93.125 C 65.046875 93.796875 64.796875 94.421875 64.484375 95.25 L 71.0625 97.015625 C 71.203125 96.171875 71.3125 95.46875 71.421875 94.765625 L 75 95.03125 L 75 96.359375 C 75.671875 93.703125 77.625 92.65625 80.140625 92.21875 L 80.140625 93.859375 C 81.109375 92.328125 82.40625 91.59375 83.96875 91.046875 L 84.234375 92.609375 C 84.90625 90.984375 86.078125 90.078125 87.515625 89.28125 L 88.03125 90.765625 C 88.4375 89.046875 89.453125 87.953125 90.71875 86.9375 L 91.3125 88.03125 C 91.71875 87.109375 92.140625 86.15625 92.5625 85.203125 L 92.6875 85.015625 L 93.484375 84.125 L 94.40625 85.28125 C 94.3125 83.5625 94.875 82.21875 95.734375 80.875 L 96.71875 81.71875 L 96.890625 81.9375 Z M 97.859375 52 L 97.59375 51.828125 C 97.71875 52 97.75 52.03125 97.78125 52.078125 L 97.921875 52.25 L 98.109375 52.53125 L 98.265625 52.703125 L 98.53125 52.90625 L 98.328125 52.640625 L 98.1875 52.453125 L 98.015625 52.15625 Z M 93.15625 90.65625 L 93.359375 90.390625 L 93.078125 90.578125 L 92.953125 90.75 L 92.75 90.828125 L 92.78125 90.921875 L 92.984375 90.796875 Z M 93.65625 90.21875 L 93.8125 90.046875 L 93.921875 89.84375 L 94.125 89.65625 L 93.90625 89.84375 L 93.5625 90.125 L 93.40625 90.359375 Z M 96.453125 87.390625 C 96.484375 87.34375 96.515625 87.296875 96.640625 87.09375 L 96.375 87.3125 L 96.25 87.546875 Z M 97.1875 86.40625 C 97.203125 86.390625 97.21875 86.375 97.234375 86.34375 L 97.1875 86.40625 L 97.046875 86.5625 L 96.84375 86.828125 C 96.8125 86.875 96.78125 86.921875 96.671875 87.125 C 96.84375 86.984375 96.890625 86.953125 96.921875 86.921875 L 97.0625 86.59375 Z M 90.046875 92.859375 L 90.25 92.765625 L 90.203125 92.671875 L 90 92.8125 L 89.8125 92.9375 L 89.515625 93.109375 L 89.296875 93.34375 L 89.59375 93.1875 L 89.890625 93.015625 Z M 99.046875 83.75 C 99.015625 83.8125 98.96875 83.875 98.921875 83.9375 L 99 83.984375 L 99.0625 83.78125 L 99.21875 83.625 L 99.390625 83.34375 C 99.4375 83.234375 99.5 83.125 99.546875 83.015625 C 99.578125 82.96875 99.59375 82.921875 99.625 82.875 L 99.515625 82.765625 C 99.5 82.828125 99.484375 82.875 99.46875 82.9375 L 99.28125 83.25 C 99.234375 83.34375 99.1875 83.453125 99.140625 83.546875 Z M 100.625 56.734375 L 100.6875 56.9375 L 100.78125 56.890625 L 100.625 56.734375 L 100.515625 56.375 L 100.359375 56.0625 L 100.140625 55.578125 L 99.984375 55.65625 L 100.28125 56.15625 C 100.34375 56.265625 100.390625 56.359375 100.4375 56.46875 Z M 94.65625 89.046875 L 94.34375 89.4375 L 94.6875 89.265625 L 94.875 89.09375 L 96.421875 88.328125 L 95.25 87.328125 L 94.734375 88.96875 C 94.703125 89 94.671875 89.015625 94.65625 89.046875 Z M 97.015625 51.125 L 97.046875 51.125 L 97.015625 51.125 L 96.90625 50.765625 L 96.1875 48.984375 L 96.5625 49.375 L 95.234375 50.46875 L 95.046875 50.15625 L 96.78125 50.875 Z M 101.25 79.53125 C 101.203125 79.59375 101.171875 79.65625 101.25 79.53125 C 101.21875 79.6875 101.234375 79.609375 101.25 79.53125 L 101.375 79.296875 L 101.28125 79.265625 Z M 93.640625 47.65625 L 93.796875 47.5625 L 93.625 47.34375 L 93.265625 47.296875 C 93.265625 47.34375 93.265625 47.390625 93.265625 47.4375 Z M 101.875 59.859375 L 101.8125 59.828125 L 101.875 59.859375 L 102.15625 61.15625 L 102.421875 61.0625 Z M 99.625 54.90625 L 99.671875 54.734375 C 99.5 54.09375 99.3125 53.453125 99.15625 52.890625 L 97.921875 53.765625 Z M 80.015625 97.34375 C 80.03125 97.375 80.03125 97.40625 80.03125 97.375 L 80 97.359375 C 79.859375 96.8125 79.703125 96.28125 79.59375 95.859375 L 77.953125 97 Z M 82.65625 96.140625 L 84.5625 96.140625 L 84.015625 94.71875 L 82.65625 95.9375 L 82.265625 96.140625 C 82.28125 96.171875 82.3125 96.21875 82.328125 96.25 Z M 97.84375 85.65625 L 99.375 84.546875 L 98.015625 83.71875 C 97.9375 84.265625 97.84375 84.921875 97.75 85.5625 C 97.734375 85.625 97.71875 85.6875 97.6875 85.875 C 97.78125 85.71875 97.8125 85.6875 97.84375 85.65625 Z M 102.171875 70.96875 L 102.171875 70.9375 L 102.171875 70.96875 C 102.484375 71.609375 102.8125 72.265625 103.078125 72.8125 L 103.890625 71.078125 Z M 103.921875 66.265625 L 102.328125 66.484375 L 103.328125 68.203125 C 103.5 67.59375 103.703125 66.921875 103.890625 66.265625 C 103.921875 66.234375 103.9375 66.203125 103.90625 66.25 C 103.921875 66.203125 103.921875 66.234375 103.921875 66.265625 Z M 101.625 58.890625 L 101.484375 57.0625 L 100.09375 57.734375 L 101.5625 59.125 C 101.59375 59.1875 101.609375 59.25 101.625 59.296875 L 101.71875 59.28125 C 101.6875 59.140625 101.65625 59.015625 101.625 58.890625 Z M 101.609375 75.421875 L 101.296875 75.265625 L 101.53125 75.484375 L 102 77.390625 L 103.09375 75.796875 Z M 90.90625 92.15625 L 92.9375 91.59375 L 91.9375 90.40625 C 91.625 90.953125 91.265625 91.5625 90.921875 92.171875 L 90.890625 92.21875 Z M 103.046875 61.578125 L 101.53125 62 L 102.859375 63.5625 C 102.921875 62.953125 102.984375 62.25 103.046875 61.578125 Z M 100.125 79.765625 C 100.15625 80.375 100.203125 81.046875 100.234375 81.53125 L 101.5 80.265625 Z M 88.125 92.84375 L 86.984375 94.484375 L 88.90625 94.1875 Z M 80.140625 96.59375 L 80.21875 96.796875 L 81.734375 96.421875 L 81.671875 96.203125 Z M 103.015625 73.78125 L 102.8125 73.734375 L 102.5 75.3125 L 102.703125 75.359375 C 102.796875 74.828125 102.90625 74.296875 103.015625 73.78125 Z M 103.125 64.5625 L 102.90625 64.53125 C 102.984375 65.046875 103.0625 65.5625 103.125 66.078125 L 103.3125 66.046875 C 103.265625 65.5625 103.203125 65.0625 103.125 64.5625 Z M 86.046875 95.03125 L 85.921875 94.796875 L 84.75 95.3125 L 84.828125 95.484375 Z M 103.40625 69.078125 L 103.3125 69.078125 L 103.3125 70.609375 L 103.40625 70.609375 Z M 75.546875 97.046875 L 75.484375 97.140625 L 77.015625 97.140625 L 77.015625 97.046875 Z M 101.53125 78.828125 L 101.421875 78.8125 C 101.4375 78.875 101.4375 78.9375 101.453125 79 L 101.515625 79 C 101.53125 78.953125 101.53125 78.890625 101.53125 78.828125 Z M 101.640625 78.5625 L 101.703125 78.4375 L 101.59375 78.4375 C 101.609375 78.46875 101.625 78.515625 101.640625 78.5625 Z M 99.734375 82.578125 L 99.765625 82.609375 L 99.765625 82.5625 Z M 99.765625 55.046875 L 99.75 55.09375 L 99.78125 55.09375 Z M 89.09375 93.359375 L 89.1875 93.375 Z M 97.578125 51.625 L 97.546875 51.65625 L 97.578125 51.65625 Z M 97.578125 51.625 "/>
<path style=" stroke:none;fill-rule:nonzero;fill:rgb(96.862745%,97.254902%,98.039216%);fill-opacity:1;" d="M 79.40625 46.96875 C 78.65625 56.40625 77.921875 65.828125 77.1875 75.25 L 76.109375 76.09375 L 75.015625 75.265625 C 74.28125 65.84375 73.546875 56.40625 72.8125 46.96875 L 65.984375 43.1875 C 65.890625 42.71875 65.796875 42.21875 65.6875 41.640625 L 86.5625 41.640625 C 86.453125 42.15625 86.359375 42.65625 86.265625 43.1875 Z M 76.34375 74.703125 L 76.609375 74.78125 C 76.6875 74.5625 76.828125 74.359375 76.84375 74.140625 C 76.921875 73.15625 76.953125 72.171875 77.015625 71.171875 C 77.359375 65 77.71875 58.8125 78.0625 52.640625 C 78.15625 51.0625 78.21875 49.5 78.3125 47.859375 L 77.4375 47.921875 C 77.078125 56.90625 76.71875 65.8125 76.34375 74.703125 Z M 69.359375 44.140625 C 70.046875 44.703125 70.734375 45.140625 71.6875 45.109375 C 74.71875 45.046875 77.765625 45.0625 80.8125 45.109375 C 81.6875 45.125 82.25 44.640625 82.875 44.140625 Z M 67.5625 43.109375 L 84.640625 43.109375 C 84.703125 42.9375 84.765625 42.75 84.828125 42.546875 L 67.359375 42.546875 C 67.4375 42.765625 67.5 42.9375 67.5625 43.109375 Z M 73.640625 46.28125 C 73.625 46.40625 73.609375 46.53125 73.59375 46.671875 C 75.15625 46.765625 76.71875 46.703125 78.28125 46.703125 C 78.40625 46.703125 78.53125 46.53125 78.65625 46.4375 L 78.578125 46.28125 Z M 73.640625 46.28125 "/>
<path style=" stroke:none;fill-rule:nonzero;fill:rgb(91.764706%,19.215686%,21.568627%);fill-opacity:1;" d="M 82.140625 31.96875 C 81.25 33.65625 80.578125 35.40625 81.109375 37.34375 C 81.265625 37.9375 81.515625 38.515625 81.84375 39.046875 C 82.1875 39.578125 82.765625 39.71875 83.375 39.53125 C 83.984375 39.34375 84.171875 38.8125 84.078125 38.28125 C 83.953125 37.5 83.796875 36.6875 83.453125 35.984375 C 82.59375 34.21875 82.71875 32.6875 83.984375 31.484375 C 84.078125 31.390625 84.1875 31.34375 84.515625 31.109375 C 83.65625 32.734375 84.265625 33.921875 85.0625 35.078125 C 86.0625 36.53125 86.828125 38.0625 86.25 39.890625 C 86.078125 40.4375 85.75 40.9375 85.5 41.4375 C 84.65625 41.4375 83.984375 41.4375 83.3125 41.4375 C 78.203125 41.4375 73.109375 41.4375 68 41.421875 C 66.140625 41.421875 64.5 39.515625 64.96875 37.71875 C 65.203125 36.796875 65.75 35.9375 66.28125 35.109375 C 66.640625 34.546875 67.1875 34.109375 67.65625 33.625 C 68.671875 32.578125 69.34375 31.390625 69.265625 29.84375 C 70.234375 30.796875 70.453125 32.40625 69.75 33.5625 C 69.40625 34.125 69 34.625 68.65625 35.171875 C 68.234375 35.875 68.40625 36.546875 69.078125 36.90625 C 69.65625 37.21875 70.1875 36.96875 70.53125 36.1875 C 71.203125 34.6875 71 33.15625 70.5625 31.671875 C 69.953125 29.578125 70.46875 27.78125 71.65625 26.0625 C 71.6875 26.03125 71.734375 26 71.625 26.078125 C 72 27.90625 72.375 29.8125 72.78125 31.734375 C 73.109375 33.21875 73.046875 34.75 72.59375 36.203125 C 72.421875 36.796875 72.34375 37.421875 72.359375 38.046875 C 72.359375 38.625 72.609375 39.203125 73.296875 39.171875 C 73.9375 39.140625 74.453125 38.75 74.453125 38.03125 C 74.453125 37.4375 74.390625 36.84375 74.265625 36.25 C 73.84375 34.265625 73.609375 32.265625 74.390625 30.328125 C 74.78125 29.390625 75.421875 28.5625 75.953125 27.671875 L 75.953125 27.65625 C 75.875 27.953125 75.78125 28.234375 75.671875 28.515625 C 74.796875 30.375 74.640625 32.265625 75.484375 34.171875 C 75.78125 34.84375 76.15625 35.484375 77.25 35.3125 C 77.25 34.890625 77.3125 34.484375 77.234375 34.109375 C 76.734375 31.609375 77.828125 29.78125 79.65625 28.25 L 79.8125 28.375 C 79.734375 28.546875 79.65625 28.703125 79.5625 28.859375 C 77.90625 31.28125 78.140625 33.875 78.859375 36.5 C 78.953125 36.859375 79.1875 37.1875 79.3125 37.46875 C 79.984375 37.59375 80.1875 37.3125 80.21875 36.8125 C 80.234375 36.609375 80.234375 36.390625 80.203125 36.1875 C 79.984375 34.40625 80.6875 33 82 31.84375 Z M 82.140625 31.96875 "/>
<path style=" stroke:none;fill-rule:nonzero;fill:rgb(94.509804%,94.901961%,96.470588%);fill-opacity:1;" d="M 92.203125 69.6875 L 85.8125 68.0625 C 87.078125 69.953125 88.796875 70.953125 90.765625 71.609375 C 91.328125 71.796875 91.75 71.515625 91.9375 70.984375 C 92.0625 70.625 92.09375 70.234375 92.203125 69.6875 Z M 92.203125 69.6875 "/>
<path style=" stroke:none;fill-rule:nonzero;fill:rgb(91.764706%,19.215686%,21.568627%);fill-opacity:1;" d="M 82 31.84375 L 82.15625 31.6875 C 82.1875 31.71875 82.21875 31.75 82.234375 31.765625 C 82.203125 31.828125 82.171875 31.890625 82.125 31.953125 Z M 82 31.84375 "/>
<path style=" stroke:none;fill-rule:nonzero;fill:rgb(91.764706%,19.215686%,21.568627%);fill-opacity:1;" d="M 82.15625 31.703125 L 82.40625 31.484375 C 82.296875 31.6875 82.265625 31.75 82.234375 31.796875 C 82.21875 31.75 82.1875 31.71875 82.15625 31.703125 Z M 82.15625 31.703125 "/>
<path style=" stroke:none;fill-rule:nonzero;fill:rgb(91.764706%,19.215686%,21.568627%);fill-opacity:1;" d="M 79.90625 28.1875 C 79.875 28.25 79.828125 28.3125 79.796875 28.359375 L 79.640625 28.234375 L 79.8125 28.09375 Z M 79.90625 28.1875 "/>
<path style=" stroke:none;fill-rule:nonzero;fill:rgb(91.764706%,19.215686%,21.568627%);fill-opacity:1;" d="M 79.8125 28.109375 L 80.0625 27.90625 L 79.90625 28.203125 C 79.875 28.15625 79.84375 28.140625 79.8125 28.109375 Z M 79.8125 28.109375 "/>
<path style=" stroke:none;fill-rule:nonzero;fill:rgb(91.764706%,19.215686%,21.568627%);fill-opacity:1;" d="M 75.9375 27.671875 L 75.953125 27.65625 C 76 27.625 75.96875 27.640625 75.9375 27.671875 Z M 75.9375 27.671875 "/>
<path style=" stroke:none;fill-rule:nonzero;fill:rgb(20%,28.235294%,50.588235%);fill-opacity:1;" d="M 103.046875 61.578125 C 102.984375 62.25 102.921875 62.953125 102.859375 63.578125 L 101.53125 62.015625 Z M 103.046875 61.578125 "/>
<path style=" stroke:none;fill-rule:nonzero;fill:rgb(20%,28.235294%,50.588235%);fill-opacity:1;" d="M 90.921875 92.171875 L 91.9375 90.40625 L 92.9375 91.59375 Z M 90.921875 92.171875 "/>
<path style=" stroke:none;fill-rule:nonzero;fill:rgb(20%,28.235294%,50.588235%);fill-opacity:1;" d="M 100.125 79.765625 L 101.515625 80.265625 L 100.25 81.53125 C 100.203125 81.03125 100.15625 80.375 100.125 79.765625 Z M 100.125 79.765625 "/>
<path style=" stroke:none;fill-rule:nonzero;fill:rgb(20%,28.235294%,50.588235%);fill-opacity:1;" d="M 101.609375 75.421875 L 103.109375 75.796875 L 102.015625 77.390625 L 101.546875 75.484375 Z M 101.609375 75.421875 "/>
<path style=" stroke:none;fill-rule:nonzero;fill:rgb(20%,28.235294%,50.588235%);fill-opacity:1;" d="M 101.5625 59.125 L 100.09375 57.734375 L 101.484375 57.0625 C 101.53125 57.640625 101.578125 58.265625 101.625 58.890625 Z M 101.5625 59.125 "/>
<path style=" stroke:none;fill-rule:nonzero;fill:rgb(20%,28.235294%,50.588235%);fill-opacity:1;" d="M 103.90625 66.25 C 103.71875 66.921875 103.515625 67.578125 103.34375 68.1875 L 102.34375 66.46875 L 103.9375 66.25 Z M 103.90625 66.25 "/>
<path style=" stroke:none;fill-rule:nonzero;fill:rgb(20%,28.235294%,50.588235%);fill-opacity:1;" d="M 102.171875 70.96875 L 103.890625 71.078125 L 103.078125 72.8125 C 102.8125 72.265625 102.5 71.609375 102.171875 70.96875 Z M 102.171875 70.96875 "/>
<path style=" stroke:none;fill-rule:nonzero;fill:rgb(20%,28.235294%,50.588235%);fill-opacity:1;" d="M 88.125 92.84375 L 88.90625 94.203125 L 86.984375 94.5 Z M 88.125 92.84375 "/>
<path style=" stroke:none;fill-rule:nonzero;fill:rgb(20%,28.235294%,50.588235%);fill-opacity:1;" d="M 97.734375 85.546875 C 97.828125 84.90625 97.921875 84.25 98 83.703125 L 99.359375 84.53125 L 97.828125 85.640625 C 97.796875 85.609375 97.765625 85.578125 97.734375 85.546875 Z M 97.734375 85.546875 "/>
<path style=" stroke:none;fill-rule:nonzero;fill:rgb(20%,28.235294%,50.588235%);fill-opacity:1;" d="M 96.78125 50.90625 L 95.046875 50.1875 L 95.234375 50.5 L 96.5625 49.40625 L 96.1875 49.015625 L 96.90625 50.78125 Z M 96.78125 50.90625 "/>
<path style=" stroke:none;fill-rule:nonzero;fill:rgb(16.078431%,25.098039%,53.72549%);fill-opacity:1;" d="M 82.65625 95.9375 L 84 94.71875 L 84.546875 96.140625 L 82.65625 96.140625 Z M 82.65625 95.9375 "/>
<path style=" stroke:none;fill-rule:nonzero;fill:rgb(20%,28.235294%,50.588235%);fill-opacity:1;" d="M 80.015625 97.34375 L 77.953125 97 L 79.59375 95.859375 C 79.703125 96.28125 79.84375 96.828125 80 97.359375 Z M 80.015625 97.34375 "/>
<path style=" stroke:none;fill-rule:nonzero;fill:rgb(20%,28.235294%,50.588235%);fill-opacity:1;" d="M 99.625 54.90625 L 97.921875 53.765625 L 99.15625 52.890625 C 99.3125 53.453125 99.484375 54.09375 99.671875 54.734375 C 99.65625 54.78125 99.640625 54.84375 99.625 54.90625 Z M 99.625 54.90625 "/>
<path style=" stroke:none;fill-rule:nonzero;fill:rgb(16.078431%,25.098039%,53.72549%);fill-opacity:1;" d="M 94.71875 88.984375 L 95.234375 87.34375 L 96.390625 88.34375 L 94.84375 89.109375 Z M 94.71875 88.984375 "/>
<path style=" stroke:none;fill-rule:nonzero;fill:rgb(68.235294%,68.627451%,23.921569%);fill-opacity:1;" d="M 80.140625 96.59375 L 81.671875 96.21875 L 81.71875 96.4375 L 80.203125 96.8125 Z M 80.140625 96.59375 "/>
<path style=" stroke:none;fill-rule:nonzero;fill:rgb(68.235294%,68.627451%,23.921569%);fill-opacity:1;" d="M 103.015625 73.765625 C 102.90625 74.296875 102.796875 74.828125 102.6875 75.34375 L 102.5 75.3125 L 102.828125 73.734375 Z M 103.015625 73.765625 "/>
<path style=" stroke:none;fill-rule:nonzero;fill:rgb(68.235294%,68.627451%,23.921569%);fill-opacity:1;" d="M 103.140625 64.5625 C 103.203125 65.0625 103.265625 65.5625 103.328125 66.0625 L 103.140625 66.09375 C 103.0625 65.578125 103 65.0625 102.921875 64.546875 Z M 103.140625 64.5625 "/>
<path style=" stroke:none;fill-rule:nonzero;fill:rgb(68.235294%,68.627451%,23.921569%);fill-opacity:1;" d="M 86.046875 95.03125 L 84.828125 95.5 L 84.75 95.328125 L 85.921875 94.8125 Z M 86.046875 95.03125 "/>
<path style=" stroke:none;fill-rule:nonzero;fill:rgb(68.235294%,68.627451%,23.921569%);fill-opacity:1;" d="M 101.875 59.859375 L 102.4375 61.0625 L 102.171875 61.15625 Z M 101.875 59.859375 "/>
<path style=" stroke:none;fill-rule:nonzero;fill:rgb(61.960784%,63.137255%,27.45098%);fill-opacity:1;" d="M 103.421875 69.84375 C 103.421875 69.25 103.394531 68.765625 103.359375 68.765625 C 103.324219 68.765625 103.296875 69.25 103.296875 69.84375 C 103.296875 70.4375 103.324219 70.921875 103.359375 70.921875 C 103.394531 70.921875 103.421875 70.4375 103.421875 69.84375 Z M 103.421875 69.84375 "/>
<path style=" stroke:none;fill-rule:nonzero;fill:rgb(61.960784%,63.137255%,27.45098%);fill-opacity:1;" d="M 75.546875 97.046875 L 77 97.046875 L 77 97.140625 L 75.46875 97.140625 Z M 75.546875 97.046875 "/>
<path style=" stroke:none;fill-rule:nonzero;fill:rgb(20%,28.235294%,50.588235%);fill-opacity:1;" d="M 93.640625 47.65625 L 93.25 47.4375 C 93.25 47.390625 93.25 47.34375 93.25 47.296875 L 93.609375 47.34375 Z M 93.640625 47.65625 "/>
<path style=" stroke:none;fill-rule:nonzero;fill:rgb(61.960784%,63.137255%,27.45098%);fill-opacity:1;" d="M 100.265625 56.140625 L 99.984375 55.640625 L 100.140625 55.5625 L 100.359375 56.046875 Z M 100.265625 56.140625 "/>
<path style=" stroke:none;fill-rule:nonzero;fill:rgb(61.960784%,63.137255%,27.45098%);fill-opacity:1;" d="M 82.65625 95.9375 L 82.65625 96.140625 L 82.34375 96.25 C 82.328125 96.21875 82.296875 96.171875 82.28125 96.140625 Z M 82.65625 95.9375 "/>
<path style=" stroke:none;fill-rule:nonzero;fill:rgb(61.960784%,63.137255%,27.45098%);fill-opacity:1;" d="M 101.5625 59.125 L 101.625 58.90625 C 101.65625 59.03125 101.6875 59.15625 101.734375 59.28125 L 101.640625 59.296875 C 101.609375 59.234375 101.578125 59.171875 101.5625 59.125 Z M 101.5625 59.125 "/>
<path style=" stroke:none;fill-rule:nonzero;fill:rgb(61.960784%,63.137255%,27.45098%);fill-opacity:1;" d="M 101.25 79.53125 C 101.234375 79.609375 101.21875 79.671875 101.25 79.546875 C 101.171875 79.65625 101.21875 79.59375 101.25 79.53125 Z M 101.25 79.53125 "/>
<path style=" stroke:none;fill-rule:nonzero;fill:rgb(20%,28.235294%,50.588235%);fill-opacity:1;" d="M 97.015625 51.125 L 96.78125 50.890625 L 96.90625 50.75 L 97 51.109375 Z M 97.015625 51.125 "/>
<path style=" stroke:none;fill-rule:nonzero;fill:rgb(61.960784%,63.137255%,27.45098%);fill-opacity:1;" d="M 101.25 79.53125 L 101.28125 79.265625 L 101.375 79.296875 Z M 101.25 79.53125 "/>
<path style=" stroke:none;fill-rule:nonzero;fill:rgb(61.960784%,63.137255%,27.45098%);fill-opacity:1;" d="M 101.53125 78.828125 C 101.53125 78.890625 101.515625 78.953125 101.515625 79 L 101.453125 79 C 101.4375 78.9375 101.4375 78.875 101.421875 78.8125 Z M 101.53125 78.828125 "/>
<path style=" stroke:none;fill-rule:nonzero;fill:rgb(68.235294%,68.627451%,23.921569%);fill-opacity:1;" d="M 92.984375 90.796875 L 92.78125 90.9375 L 92.75 90.84375 L 92.953125 90.765625 Z M 92.984375 90.796875 "/>
<path style=" stroke:none;fill-rule:nonzero;fill:rgb(61.960784%,63.137255%,27.45098%);fill-opacity:1;" d="M 101.640625 78.5625 C 101.625 78.515625 101.609375 78.46875 101.59375 78.421875 L 101.703125 78.421875 Z M 101.640625 78.5625 "/>
<path style=" stroke:none;fill-rule:nonzero;fill:rgb(61.960784%,63.137255%,27.45098%);fill-opacity:1;" d="M 94.6875 89.265625 L 94.34375 89.4375 L 94.65625 89.046875 Z M 94.6875 89.265625 "/>
<path style=" stroke:none;fill-rule:nonzero;fill:rgb(61.960784%,63.137255%,27.45098%);fill-opacity:1;" d="M 100.359375 56.0625 L 100.515625 56.375 L 100.4375 56.453125 L 100.28125 56.140625 Z M 100.359375 56.0625 "/>
<path style=" stroke:none;fill-rule:nonzero;fill:rgb(61.960784%,63.137255%,27.45098%);fill-opacity:1;" d="M 100.515625 56.375 L 100.640625 56.71875 L 100.625 56.734375 L 100.4375 56.4375 Z M 100.515625 56.375 "/>
<path style=" stroke:none;fill-rule:nonzero;fill:rgb(61.960784%,63.137255%,27.45098%);fill-opacity:1;" d="M 99.3125 83.25 L 99.5 82.9375 L 99.578125 83.015625 L 99.421875 83.34375 C 99.390625 83.3125 99.34375 83.28125 99.3125 83.25 Z M 99.3125 83.25 "/>
<path style=" stroke:none;fill-rule:nonzero;fill:rgb(61.960784%,63.137255%,27.45098%);fill-opacity:1;" d="M 93.640625 47.65625 L 93.625 47.34375 L 93.8125 47.578125 Z M 93.640625 47.65625 "/>
<path style=" stroke:none;fill-rule:nonzero;fill:rgb(68.235294%,68.627451%,23.921569%);fill-opacity:1;" d="M 99.171875 83.5625 L 99.3125 83.265625 C 99.359375 83.28125 99.390625 83.3125 99.421875 83.34375 L 99.25 83.625 C 99.21875 83.59375 99.203125 83.578125 99.171875 83.5625 Z M 99.171875 83.5625 "/>
<path style=" stroke:none;fill-rule:nonzero;fill:rgb(61.960784%,63.137255%,27.45098%);fill-opacity:1;" d="M 89.875 93 L 89.578125 93.171875 L 89.5 93.09375 L 89.796875 92.921875 Z M 89.875 93 "/>
<path style=" stroke:none;fill-rule:nonzero;fill:rgb(61.960784%,63.137255%,27.45098%);fill-opacity:1;" d="M 100.640625 56.71875 L 100.78125 56.890625 L 100.6875 56.9375 L 100.625 56.734375 Z M 100.640625 56.71875 "/>
<path style=" stroke:none;fill-rule:nonzero;fill:rgb(68.235294%,68.627451%,23.921569%);fill-opacity:1;" d="M 99.078125 83.765625 C 99.046875 83.828125 99.03125 83.90625 99.015625 83.96875 L 98.9375 83.921875 C 98.984375 83.859375 99.015625 83.796875 99.0625 83.734375 Z M 99.078125 83.765625 "/>
<path style=" stroke:none;fill-rule:nonzero;fill:rgb(15.294118%,24.313725%,52.941176%);fill-opacity:1;" d="M 82.0625 99.3125 L 81.765625 98.9375 L 82.25 99.15625 Z M 82.0625 99.3125 "/>
<path style=" stroke:none;fill-rule:nonzero;fill:rgb(61.960784%,63.137255%,27.45098%);fill-opacity:1;" d="M 97.03125 86.578125 C 96.984375 86.6875 96.9375 86.796875 96.890625 86.90625 L 96.8125 86.828125 Z M 97.03125 86.578125 "/>
<path style=" stroke:none;fill-rule:nonzero;fill:rgb(61.960784%,63.137255%,27.45098%);fill-opacity:1;" d="M 98.109375 52.53125 L 97.921875 52.25 L 98.015625 52.15625 L 98.1875 52.453125 Z M 98.109375 52.53125 "/>
<path style=" stroke:none;fill-rule:nonzero;fill:rgb(61.960784%,63.137255%,27.45098%);fill-opacity:1;" d="M 89.984375 92.796875 L 90.1875 92.65625 L 90.25 92.75 L 90.046875 92.84375 Z M 89.984375 92.796875 "/>
<path style=" stroke:none;fill-rule:nonzero;fill:rgb(20%,28.235294%,50.588235%);fill-opacity:1;" d="M 97.828125 85.65625 C 97.796875 85.6875 97.78125 85.734375 97.671875 85.875 C 97.703125 85.6875 97.71875 85.625 97.734375 85.546875 C 97.765625 85.578125 97.796875 85.609375 97.828125 85.65625 Z M 97.828125 85.65625 "/>
<path style=" stroke:none;fill-rule:nonzero;fill:rgb(61.960784%,63.137255%,27.45098%);fill-opacity:1;" d="M 97.1875 86.421875 L 97.21875 86.359375 C 97.203125 86.375 97.1875 86.390625 97.1875 86.421875 Z M 97.1875 86.421875 "/>
<path style=" stroke:none;fill-rule:nonzero;fill:rgb(61.960784%,63.137255%,27.45098%);fill-opacity:1;" d="M 97.1875 86.40625 C 97.140625 86.453125 97.09375 86.515625 97.046875 86.578125 L 97.03125 86.5625 Z M 97.1875 86.40625 "/>
<path style=" stroke:none;fill-rule:nonzero;fill:rgb(15.294118%,24.313725%,52.941176%);fill-opacity:1;" d="M 104.6875 59.390625 L 104.546875 59.609375 C 104.578125 59.421875 104.59375 59.359375 104.609375 59.296875 C 104.625 59.328125 104.65625 59.359375 104.6875 59.390625 Z M 104.6875 59.390625 "/>
<path style=" stroke:none;fill-rule:nonzero;fill:rgb(61.960784%,63.137255%,27.45098%);fill-opacity:1;" d="M 96.90625 86.90625 C 96.859375 86.9375 96.828125 86.96875 96.65625 87.109375 C 96.765625 86.921875 96.796875 86.859375 96.828125 86.8125 Z M 96.90625 86.90625 "/>
<path style=" stroke:none;fill-rule:nonzero;fill:rgb(68.235294%,68.627451%,23.921569%);fill-opacity:1;" d="M 99.25 83.625 L 99.09375 83.78125 L 99.0625 83.75 C 99.109375 83.6875 99.140625 83.625 99.1875 83.5625 C 99.203125 83.578125 99.21875 83.59375 99.25 83.625 Z M 99.25 83.625 "/>
<path style=" stroke:none;fill-rule:nonzero;fill:rgb(68.235294%,68.627451%,23.921569%);fill-opacity:1;" d="M 96.375 87.328125 L 96.640625 87.109375 C 96.5 87.3125 96.46875 87.359375 96.453125 87.40625 C 96.4375 87.375 96.40625 87.34375 96.375 87.328125 Z M 96.375 87.328125 "/>
<path style=" stroke:none;fill-rule:nonzero;fill:rgb(68.235294%,68.627451%,23.921569%);fill-opacity:1;" d="M 96.453125 87.390625 L 96.25 87.546875 L 96.375 87.3125 C 96.40625 87.34375 96.4375 87.375 96.453125 87.390625 Z M 96.453125 87.390625 "/>
<path style=" stroke:none;fill-rule:nonzero;fill:rgb(68.235294%,68.627451%,23.921569%);fill-opacity:1;" d="M 101.875 59.84375 L 101.8125 59.8125 Z M 101.875 59.84375 "/>
<path style=" stroke:none;fill-rule:nonzero;fill:rgb(61.960784%,63.137255%,27.45098%);fill-opacity:1;" d="M 99.5 82.9375 C 99.515625 82.875 99.53125 82.828125 99.546875 82.765625 L 99.65625 82.875 L 99.578125 83.03125 Z M 99.5 82.9375 "/>
<path style=" stroke:none;fill-rule:nonzero;fill:rgb(61.960784%,63.137255%,27.45098%);fill-opacity:1;" d="M 99.734375 82.578125 L 99.78125 82.5625 L 99.765625 82.609375 Z M 99.734375 82.578125 "/>
<path style=" stroke:none;fill-rule:nonzero;fill:rgb(16.078431%,25.098039%,53.72549%);fill-opacity:1;" d="M 94.6875 89.265625 L 94.65625 89.046875 C 94.671875 89.015625 94.703125 89 94.71875 88.96875 L 94.859375 89.078125 Z M 94.6875 89.265625 "/>
<path style=" stroke:none;fill-rule:nonzero;fill:rgb(68.235294%,68.627451%,23.921569%);fill-opacity:1;" d="M 93.90625 89.84375 L 94.125 89.671875 Z M 93.90625 89.84375 "/>
<path style=" stroke:none;fill-rule:nonzero;fill:rgb(68.235294%,68.627451%,23.921569%);fill-opacity:1;" d="M 93.71875 89.984375 L 93.90625 89.84375 L 93.921875 89.859375 L 93.8125 90.0625 Z M 93.71875 89.984375 "/>
<path style=" stroke:none;fill-rule:nonzero;fill:rgb(68.235294%,68.627451%,23.921569%);fill-opacity:1;" d="M 93.5625 90.125 L 93.734375 89.984375 L 93.8125 90.0625 L 93.65625 90.234375 C 93.625 90.1875 93.59375 90.15625 93.5625 90.125 Z M 93.5625 90.125 "/>
<path style=" stroke:none;fill-rule:nonzero;fill:rgb(15.294118%,24.313725%,52.941176%);fill-opacity:1;" d="M 96.8125 81.640625 L 96.875 81.953125 L 96.703125 81.734375 C 96.734375 81.703125 96.78125 81.671875 96.8125 81.640625 Z M 96.8125 81.640625 "/>
<path style=" stroke:none;fill-rule:nonzero;fill:rgb(68.235294%,68.627451%,23.921569%);fill-opacity:1;" d="M 93.65625 90.21875 L 93.40625 90.359375 L 93.5625 90.125 C 93.59375 90.15625 93.625 90.1875 93.65625 90.21875 Z M 93.65625 90.21875 "/>
<path style=" stroke:none;fill-rule:nonzero;fill:rgb(68.235294%,68.627451%,23.921569%);fill-opacity:1;" d="M 93.078125 90.578125 L 93.359375 90.390625 L 93.15625 90.65625 Z M 93.078125 90.578125 "/>
<path style=" stroke:none;fill-rule:nonzero;fill:rgb(68.235294%,68.627451%,23.921569%);fill-opacity:1;" d="M 92.9375 90.765625 L 93.0625 90.59375 C 93.09375 90.625 93.109375 90.640625 93.140625 90.671875 L 92.96875 90.796875 Z M 92.9375 90.765625 "/>
<path style=" stroke:none;fill-rule:nonzero;fill:rgb(20%,28.235294%,50.588235%);fill-opacity:1;" d="M 90.90625 92.15625 L 90.890625 92.21875 C 90.890625 92.234375 90.90625 92.203125 90.90625 92.15625 Z M 90.90625 92.15625 "/>
<path style=" stroke:none;fill-rule:nonzero;fill:rgb(61.960784%,63.137255%,27.45098%);fill-opacity:1;" d="M 99.765625 55.046875 L 99.78125 55.078125 L 99.75 55.078125 Z M 99.765625 55.046875 "/>
<path style=" stroke:none;fill-rule:nonzero;fill:rgb(20%,28.235294%,50.588235%);fill-opacity:1;" d="M 103.921875 66.265625 C 103.921875 66.234375 103.921875 66.203125 103.921875 66.234375 C 103.953125 66.203125 103.921875 66.234375 103.90625 66.25 Z M 103.921875 66.265625 "/>
<path style=" stroke:none;fill-rule:nonzero;fill:rgb(61.960784%,63.137255%,27.45098%);fill-opacity:1;" d="M 89.796875 92.921875 L 89.984375 92.796875 L 90.03125 92.84375 L 89.875 93 Z M 89.796875 92.921875 "/>
<path style=" stroke:none;fill-rule:nonzero;fill:rgb(20%,28.235294%,50.588235%);fill-opacity:1;" d="M 101.546875 75.5 L 101.3125 75.28125 L 101.625 75.421875 Z M 101.546875 75.5 "/>
<path style=" stroke:none;fill-rule:nonzero;fill:rgb(61.960784%,63.137255%,27.45098%);fill-opacity:1;" d="M 89.578125 93.171875 L 89.28125 93.328125 L 89.5 93.09375 Z M 89.578125 93.171875 "/>
<path style=" stroke:none;fill-rule:nonzero;fill:rgb(61.960784%,63.137255%,27.45098%);fill-opacity:1;" d="M 89.09375 93.359375 L 89.1875 93.375 Z M 89.09375 93.359375 "/>
<path style=" stroke:none;fill-rule:nonzero;fill:rgb(61.960784%,63.137255%,27.45098%);fill-opacity:1;" d="M 99.671875 54.71875 C 99.65625 54.78125 99.640625 54.84375 99.625 54.890625 C 99.640625 54.84375 99.65625 54.78125 99.671875 54.71875 Z M 99.671875 54.71875 "/>
<path style=" stroke:none;fill-rule:nonzero;fill:rgb(15.294118%,24.313725%,52.941176%);fill-opacity:1;" d="M 105.703125 74.65625 L 105.40625 74.6875 L 105.609375 74.515625 C 105.640625 74.5625 105.671875 74.609375 105.703125 74.65625 Z M 105.703125 74.65625 "/>
<path style=" stroke:none;fill-rule:nonzero;fill:rgb(68.235294%,68.627451%,23.921569%);fill-opacity:1;" d="M 98.328125 52.640625 L 98.53125 52.90625 L 98.265625 52.703125 C 98.28125 52.671875 98.296875 52.65625 98.328125 52.640625 Z M 98.328125 52.640625 "/>
<path style=" stroke:none;fill-rule:nonzero;fill:rgb(15.294118%,24.313725%,52.941176%);fill-opacity:1;" d="M 99.765625 73.84375 L 99.921875 74.125 L 99.625 73.96875 Z M 99.765625 73.84375 "/>
<path style=" stroke:none;fill-rule:nonzero;fill:rgb(20%,28.235294%,50.588235%);fill-opacity:1;" d="M 80 97.34375 L 80.03125 97.359375 C 80.03125 97.40625 80.03125 97.375 80 97.34375 Z M 80 97.34375 "/>
<path style=" stroke:none;fill-rule:nonzero;fill:rgb(61.960784%,63.137255%,27.45098%);fill-opacity:1;" d="M 98.265625 52.703125 L 98.109375 52.53125 L 98.171875 52.453125 L 98.3125 52.640625 C 98.296875 52.65625 98.265625 52.671875 98.265625 52.703125 Z M 98.265625 52.703125 "/>
<path style=" stroke:none;fill-rule:nonzero;fill:rgb(61.960784%,63.137255%,27.45098%);fill-opacity:1;" d="M 97.921875 52.25 L 97.78125 52.078125 L 97.859375 52 L 98 52.171875 Z M 97.921875 52.25 "/>
<path style=" stroke:none;fill-rule:nonzero;fill:rgb(61.960784%,63.137255%,27.45098%);fill-opacity:1;" d="M 97.78125 52.078125 C 97.75 52.03125 97.71875 52 97.59375 51.828125 L 97.859375 52 Z M 97.78125 52.078125 "/>
<path style=" stroke:none;fill-rule:nonzero;fill:rgb(61.960784%,63.137255%,27.45098%);fill-opacity:1;" d="M 97.578125 51.625 L 97.59375 51.671875 L 97.546875 51.671875 Z M 97.578125 51.625 "/>
<path style=" stroke:none;fill-rule:nonzero;fill:rgb(15.294118%,24.313725%,52.941176%);fill-opacity:1;" d="M 104.28125 79.609375 L 103.90625 79.71875 C 104.109375 79.578125 104.15625 79.5625 104.203125 79.53125 C 104.234375 79.546875 104.265625 79.578125 104.28125 79.609375 Z M 104.28125 79.609375 "/>
<path style=" stroke:none;fill-rule:nonzero;fill:rgb(18.039216%,27.058824%,54.509804%);fill-opacity:1;" d="M 76.34375 74.703125 C 76.703125 65.796875 77.0625 56.890625 77.421875 47.921875 L 78.296875 47.859375 C 78.21875 49.5 78.140625 51.0625 78.046875 52.640625 C 77.703125 58.828125 77.34375 65 77 71.1875 C 76.9375 72.171875 76.90625 73.15625 76.828125 74.15625 C 76.8125 74.375 76.671875 74.578125 76.59375 74.796875 Z M 76.34375 74.703125 "/>
<path style=" stroke:none;fill-rule:nonzero;fill:rgb(19.607843%,28.235294%,55.686275%);fill-opacity:1;" d="M 69.359375 44.140625 L 82.875 44.140625 C 82.25 44.625 81.6875 45.125 80.8125 45.109375 C 77.765625 45.0625 74.734375 45.046875 71.6875 45.109375 C 70.71875 45.140625 70.03125 44.703125 69.359375 44.140625 Z M 69.359375 44.140625 "/>
<path style=" stroke:none;fill-rule:nonzero;fill:rgb(16.862745%,25.882353%,54.117647%);fill-opacity:1;" d="M 67.5625 43.109375 C 67.5 42.9375 67.4375 42.765625 67.359375 42.546875 L 84.84375 42.546875 C 84.765625 42.75 84.71875 42.921875 84.65625 43.109375 Z M 67.5625 43.109375 "/>
<path style=" stroke:none;fill-rule:nonzero;fill:rgb(16.862745%,25.882353%,54.117647%);fill-opacity:1;" d="M 73.640625 46.28125 L 78.578125 46.28125 L 78.65625 46.4375 C 78.53125 46.53125 78.40625 46.703125 78.28125 46.703125 C 76.71875 46.6875 75.15625 46.765625 73.59375 46.671875 C 73.609375 46.53125 73.625 46.40625 73.640625 46.28125 Z M 73.640625 46.28125 "/>
<path style=" stroke:none;fill-rule:nonzero;fill:rgb(16.078431%,25.098039%,53.72549%);fill-opacity:1;" d="M 92.203125 69.6875 C 92.09375 70.234375 92.0625 70.625 91.9375 70.984375 C 91.75 71.515625 91.328125 71.796875 90.765625 71.609375 C 88.796875 70.953125 87.078125 69.96875 85.8125 68.0625 Z M 92.203125 69.6875 "/>
</g>
</svg>
